<svg xmlns="http://www.w3.org/2000/svg" width="407" height="264" viewBox="0 0 407 264">
  <g fill="none" fill-rule="evenodd">
    <path fill="#44F" d="M348.695608,63.1664015 C380.517152,63.1664015 406.31361,88.9628594 406.31361,120.784403 C406.31361,129.81436 404.236359,138.359148 400.533641,145.966986 L374.730409,145.965604 C367.658955,145.965604 361.926409,151.69815 361.926409,158.769604 C361.926409,165.841058 367.658955,171.573604 374.730409,171.573604 L374.730409,171.573604 L375.925759,171.574644 C367.8171,175.931062 358.544961,178.402404 348.695608,178.402404 L170.720004,178.402404 C177.791458,178.402404 183.524004,172.669858 183.524004,165.598404 C183.524004,158.52695 177.791458,152.794404 170.720004,152.794404 L170.720004,152.794404 L9.70358678,152.79596 C3.57446022,143.640163 6.74050693e-15,132.629713 0,120.784403 C-7.85822176e-16,114.367678 1.04892504,108.195942 2.98466379,102.431308 L210.839205,102.432002 C217.910659,102.432002 223.643205,96.6994563 223.643205,89.6280022 C223.643205,82.5565481 217.910659,76.8240018 210.839205,76.8240018 L210.839205,76.8240018 L20.3705314,76.8230816 C30.4146294,68.3044617 43.4162863,63.1664015 57.6180014,63.1664015 L348.695608,63.1664015 Z M368.755209,120.357603 L145.965604,120.357603 C138.894149,120.357603 133.161603,126.090149 133.161603,133.161603 C133.161603,140.233057 138.894149,145.965604 145.965604,145.965604 L145.965604,145.965604 L368.755209,145.965604 C375.826663,145.965604 381.559209,140.233057 381.559209,133.161603 C381.559209,126.090149 375.826663,120.357603 368.755209,120.357603 L368.755209,120.357603 Z"/>
    <rect width="97.31" height="25.608" x="39.266" y="29.876" fill="#07F" rx="12.804"/>
    <rect width="153.648" height="25.608" x="183.524" y="23.047" fill="#FFAB2B" rx="12.804"/>
    <rect width="82.799" height="25.608" x="296.199" y="204.01" fill="#FF57A8" rx="12.804"/>
    <rect width="82.799" height="25.608" x="10.243" y="186.085" fill="#07F" rx="12.804"/>
    <g transform="translate(126.333 23.047)">
      <path fill="#00D6C6" d="M58.8984014,27.3152007 L94.7496023,27.3152007 L94.7496023,17.0720004 C94.7496023,11.4151931 90.1632094,6.82880016 84.506402,6.82880016 L69.1416017,6.82880016 C63.4847943,6.82880016 58.8984014,11.4151931 58.8984014,17.0720004 L58.8984014,27.3152007 Z M99.8712024,32.4368008 L53.7768013,32.4368008 L53.7768013,15.3648004 C53.7768013,7.82153699 59.8911382,1.70720004 67.4344016,1.70720004 L86.2136021,1.70720004 C93.7568655,1.70720004 99.8712024,7.82153699 99.8712024,15.3648004 L99.8712024,32.4368008 L99.8712024,32.4368008 Z"/>
      <path fill="#00D6C6" d="M119.504003,215.107205 L34.1440008,215.107205 C22.8295325,215.107205 13.6576003,205.935273 13.6576003,194.620805 L13.6576003,42.680001 C13.6576003,34.1943632 20.5367629,27.3152007 29.0224007,27.3152007 L124.625603,27.3152007 C133.111241,27.3152007 139.990403,34.1943632 139.990403,42.680001 L139.990403,194.620805 C139.990403,205.935273 130.818471,215.107205 119.504003,215.107205"/>
      <path fill="#53007A" d="M119.504003,215.107205 L34.1440008,215.107205 C22.8295325,215.107205 13.6576003,205.935273 13.6576003,194.620805 L13.6576003,177.548804 L139.990403,177.548804 L139.990403,194.620805 C139.990403,205.935273 130.818471,215.107205 119.504003,215.107205"/>
      <path fill="#00AEA0" d="M107.553603 90.4816022L46.0944011 90.4816022C36.6655353 90.4816022 29.0224007 82.8384676 29.0224007 73.4096018L29.0224007 27.3152007 124.625603 27.3152007 124.625603 73.4096018C124.625603 82.8384676 116.982468 90.4816022 107.553603 90.4816022M86.9963533 10.2432002L66.6516504 10.2432002C64.7267824 10.2432002 63.1664015 8.68281941 63.1664015 6.75795136L63.1664015 3.48524888C63.1664015 1.56038084 64.7267824 0 66.6516504 0L86.9963533 0C88.9212213 0 90.4816022 1.56038084 90.4816022 3.48524888L90.4816022 6.75795136C90.4816022 8.68281941 88.9212213 10.2432002 86.9963533 10.2432002M139.990403 186.084804L139.990403 83.652802 153.648004 83.652802 153.648004 172.427204C153.648004 179.970468 147.533667 186.084804 139.990403 186.084804"/>
      <path fill="#53007A" d="M139.990403,186.084804 L139.990403,169.012804 L153.648004,169.012804 L153.648004,172.427204 C153.648004,179.970468 147.533667,186.084804 139.990403,186.084804"/>
      <path fill="#00AEA0" d="M13.6576003,186.084804 L13.6576003,83.652802 L0,83.652802 L0,172.427204 C0,179.970468 6.11433695,186.084804 13.6576003,186.084804"/>
      <path fill="#53007A" d="M13.6576003,186.084804 L13.6576003,169.012804 L0,169.012804 L0,172.427204 C0,179.970468 6.11433695,186.084804 13.6576003,186.084804"/>
      <polygon fill="#31322F" points="44.387 139.99 58.045 139.99 58.045 27.315 44.387 27.315"/>
      <path fill="#FAD480" d="M59.7520014,77.6776019 L42.680001,77.6776019 C41.736773,77.6776019 40.972801,78.4424275 40.972801,79.3848019 L40.972801,94.7496023 C40.972801,95.6919767 41.736773,96.4568023 42.680001,96.4568023 L59.7520014,96.4568023 C60.6952295,96.4568023 61.4592015,95.6919767 61.4592015,94.7496023 L61.4592015,79.3848019 C61.4592015,78.4424275 60.6952295,77.6776019 59.7520014,77.6776019 Z M44.3872011,93.0424022 L58.0448014,93.0424022 L58.0448014,81.092002 L44.3872011,81.092002 L44.3872011,93.0424022 Z"/>
      <polygon fill="#31322F" points="95.603 139.99 109.261 139.99 109.261 27.315 95.603 27.315"/>
      <path fill="#FAD480" d="M110.968003,77.6776019 L93.8960023,77.6776019 C92.9536278,77.6776019 92.1888022,78.4424275 92.1888022,79.3848019 L92.1888022,94.7496023 C92.1888022,95.6919767 92.9536278,96.4568023 93.8960023,96.4568023 L110.968003,96.4568023 C111.910377,96.4568023 112.675203,95.6919767 112.675203,94.7496023 L112.675203,79.3848019 C112.675203,78.4424275 111.910377,77.6776019 110.968003,77.6776019 Z M95.6032023,93.0424022 L109.260803,93.0424022 L109.260803,81.092002 L95.6032023,81.092002 L95.6032023,93.0424022 Z"/>
      <path fill="#00AEA0" d="M119.504003,197.181605 L34.1440008,197.181605 C27.5439655,197.181605 22.1936005,191.83124 22.1936005,185.231204 L22.1936005,140.844003 C22.1936005,134.243968 27.5439655,128.893603 34.1440008,128.893603 L119.504003,128.893603 C126.104038,128.893603 131.454403,134.243968 131.454403,140.844003 L131.454403,185.231204 C131.454403,191.83124 126.104038,197.181605 119.504003,197.181605"/>
      <path fill="#464644" d="M122.064803,141.270803 L31.5832008,141.270803 C30.1687855,141.270803 29.0224007,140.124419 29.0224007,138.710003 C29.0224007,137.295588 30.1687855,136.149203 31.5832008,136.149203 L122.064803,136.149203 C123.479218,136.149203 124.625603,137.295588 124.625603,138.710003 C124.625603,140.124419 123.479218,141.270803 122.064803,141.270803"/>
      <path fill="#FAD480" d="M34.1440008,149.380004 L34.1440008,149.380004 C32.7295856,149.380004 31.5832008,148.233619 31.5832008,146.819204 L32.267788,140.655358 C32.3642448,139.790661 33.0949264,139.136803 33.9647448,139.136803 L34.3232568,139.136803 C35.1930752,139.136803 35.9237569,139.790661 36.0202137,140.655358 L36.7048009,146.819204 C36.7048009,148.233619 35.5584161,149.380004 34.1440008,149.380004"/>
    </g>
    <g transform="translate(182.67 168.16)">
      <path stroke="#000" stroke-linecap="round" stroke-linejoin="round" stroke-width=".632" d="M35.5010968,33.8753516 C25.5694435,37.933477 16.2315544,32.5940211 7.09027065,24.1409353"/>
      <path fill="#000" fill-rule="nonzero" d="M34.8100564,31.6171527 C34.0612187,32.8635837 34.4645362,34.4811173 35.7109672,35.230113 C36.9573982,35.9791086 38.5749318,35.5757911 39.3239274,34.3293601 C40.072923,33.0827711 39.6696056,31.4652375 38.4231745,30.7162419 C37.1767435,29.9674042 35.559052,30.3707217 34.8100564,31.6171527 Z"/>
      <path stroke="#000" stroke-linecap="round" stroke-linejoin="round" stroke-width=".632" d="M22.2006214,3.47415208 C30.6641296,9.89845937 30.8932657,20.6547816 28.3940871,32.8465288"/>
      <path fill="#000" fill-rule="nonzero" d="M20.5425034,5.21122813 C21.9815919,5.21122813 23.1481174,4.04465523 23.1481174,2.60561406 C23.1481174,1.16657289 21.9815919,0 20.5425034,0 C19.1035727,0 17.9368893,1.16657289 17.9368893,2.60561406 C17.9368893,4.04465523 19.1035727,5.21122813 20.5425034,5.21122813 Z"/>
      <path stroke="#000" stroke-linecap="round" stroke-linejoin="round" stroke-width=".632" d="M2.70071108,30.3257156 C3.78024067,19.6515413 12.8785081,13.9132527 24.6337912,9.81051594"/>
      <path fill="#000" fill-rule="nonzero" d="M5.01898118,30.7759341 C4.27003295,29.5293452 2.65243616,29.1260277 1.40597356,29.8750233 C0.159510955,30.624019 -0.243795464,32.2415526 0.505157505,33.4879836 C1.25410574,34.7345725 2.87170253,35.13789 4.11814934,34.3888944 C5.36461194,33.6398988 5.76792941,32.0223652 5.01898118,30.7759341 Z"/>
      <polygon fill="#000" points="21.922 19.181 21.522 25.842 16.354 22.858"/>
    </g>
    <path fill="#FF57A8" d="M330.343208,0 C353.914722,0 373.023209,19.1084873 373.023209,42.680001 C373.023209,66.2515147 353.914722,85.3600021 330.343208,85.3600021 C306.771694,85.3600021 287.663207,66.2515147 287.663207,42.680001 C287.663207,19.1084873 306.771694,0 330.343208,0 Z M330.343208,12.8040003 C313.843148,12.8040003 300.467207,26.1799414 300.467207,42.680001 C300.467207,59.1800606 313.843148,72.5560017 330.343208,72.5560017 C346.843268,72.5560017 360.219209,59.1800606 360.219209,42.680001 C360.219209,26.1799414 346.843268,12.8040003 330.343208,12.8040003 Z"/>
    <path fill="#44F" d="M100.724802,212.546405 C114.867711,212.546405 126.332803,224.011498 126.332803,238.154406 C126.332803,252.297314 114.867711,263.762406 100.724802,263.762406 C86.5818942,263.762406 75.1168018,252.297314 75.1168018,238.154406 C75.1168018,224.011498 86.5818942,212.546405 100.724802,212.546405 Z M100.724802,220.228805 C90.8247667,220.228805 82.799202,228.25437 82.799202,238.154406 C82.799202,248.054441 90.8247667,256.080006 100.724802,256.080006 C110.624838,256.080006 118.650403,248.054441 118.650403,238.154406 C118.650403,228.25437 110.624838,220.228805 100.724802,220.228805 Z"/>
    <path fill="#FF57A8" d="M35.8512009,48.6552012 C49.9941091,48.6552012 61.4592015,60.1202936 61.4592015,74.2632018 C61.4592015,88.40611 49.9941091,99.8712024 35.8512009,99.8712024 C21.7082926,99.8712024 10.2432002,88.40611 10.2432002,74.2632018 C10.2432002,60.1202936 21.7082926,48.6552012 35.8512009,48.6552012 Z M35.8512009,56.3376014 C25.9511651,56.3376014 17.9256004,64.363166 17.9256004,74.2632018 C17.9256004,84.1632375 25.9511651,92.1888022 35.8512009,92.1888022 C45.7512366,92.1888022 53.7768013,84.1632375 53.7768013,74.2632018 C53.7768013,64.363166 45.7512366,56.3376014 35.8512009,56.3376014 Z"/>
  </g>
</svg>
