<svg width="161" height="155" viewBox="0 0 161 155" fill="none" xmlns="http://www.w3.org/2000/svg">
<path d="M141.022 128.097C103.466 143.442 68.1554 123.252 33.5885 91.2871" stroke="black" stroke-width="2.38859" stroke-linecap="round" stroke-linejoin="round"/>
<path d="M138.409 119.558C135.577 124.271 137.102 130.388 141.815 133.22C146.529 136.052 152.646 134.527 155.478 129.814C158.31 125.1 156.785 118.983 152.071 116.151C147.358 113.319 141.241 114.844 138.409 119.558Z" fill="black"/>
<path d="M90.7273 13.1372C122.731 37.4302 123.598 78.1045 114.147 124.207" stroke="black" stroke-width="2.38859" stroke-linecap="round" stroke-linejoin="round"/>
<path d="M84.4572 19.7059C89.8989 19.7059 94.3102 15.2945 94.3102 9.85293C94.3102 4.41131 89.8989 0 84.4572 0C79.0156 0 74.6043 4.41131 74.6043 9.85293C74.6043 15.2945 79.0156 19.7059 84.4572 19.7059Z" fill="black"/>
<path d="M16.9897 114.675C21.0718 74.3106 55.4762 52.6119 99.9277 37.0977" stroke="black" stroke-width="2.38859" stroke-linecap="round" stroke-linejoin="round"/>
<path d="M25.7561 116.377C22.924 111.663 16.8072 110.138 12.0938 112.97C7.3804 115.802 5.8553 121.919 8.68739 126.632C11.5195 131.346 17.6363 132.871 22.3497 130.039C27.0631 127.207 28.5882 121.09 25.7561 116.377Z" fill="black"/>
<path fill-rule="evenodd" clip-rule="evenodd" d="M89.6733 72.5321L88.1616 97.7185L68.6172 86.4345L89.6733 72.5321Z" fill="black"/>
</svg>
