<svg xmlns="http://www.w3.org/2000/svg" xmlns:xlink="http://www.w3.org/1999/xlink" width="438" height="175" viewBox="0 0 438 175">
  <defs>
    <rect id="banner-mobil-a" width="437.184" height="174" x="0" y=".424"/>
    <linearGradient id="banner-mobil-c" x1="97.605%" x2="26.763%" y1="-25.058%" y2="106.362%">
      <stop offset="0%" stop-color="#FFF"/>
      <stop offset="100%"/>
    </linearGradient>
  </defs>
  <g fill="none" fill-rule="evenodd">
    <mask id="banner-mobil-b" fill="#fff">
      <use xlink:href="#banner-mobil-a"/>
    </mask>
    <g mask="url(#banner-mobil-b)">
      <g transform="translate(0 -70.304)">
        <rect width="376.992" height="106.92" x="60.192" y="58.608" fill="#DCEDD9" rx="53.46"/>
        <rect width="209.088" height="23.76" x="197.208" y="100.584" fill="#DCEDD9" rx="11.88"/>
        <rect width="230.472" height="23.76" y="141.768" fill="#DCEDD9" rx="11.88"/>
        <rect width="230.472" height="23.76" x="37.224" y="71.28" fill="#DCEDD9" rx="11.88"/>
        <rect width="76.824" height="23.76" x="335.016" y="189.288" fill="#FFE0FA" rx="11.88"/>
        <path fill="#09F" d="M288.288,220.968 L209.088,220.968 C198.59004,220.968 190.08,212.45796 190.08,201.96 L190.08,60.984 C190.08,53.110728 196.462728,46.728 204.336,46.728 L293.04,46.728 C300.913272,46.728 307.296,53.110728 307.296,60.984 L307.296,201.96 C307.296,212.45796 298.78596,220.968 288.288,220.968"/>
        <path fill="#000" d="M288.288,220.968 L209.088,220.968 C198.59004,220.968 190.08,212.45796 190.08,201.96 L190.08,186.12 L307.296,186.12 L307.296,201.96 C307.296,212.45796 298.78596,220.968 288.288,220.968"/>
        <path fill="#0065FF" d="M277.2 105.336L220.176 105.336C211.427568 105.336 204.336 98.244432 204.336 89.496L204.336 46.728 293.04 46.728 293.04 89.496C293.04 98.244432 285.948432 105.336 277.2 105.336M307.296 194.04L307.296 99 319.968 99 319.968 181.368C319.968 188.366904 314.294904 194.04 307.296 194.04"/>
        <path fill="#000" d="M307.296,194.04 L307.296,178.2 L319.968,178.2 L319.968,181.368 C319.968,188.366904 314.294904,194.04 307.296,194.04"/>
        <path fill="#0065FF" d="M190.08,194.04 L190.08,99 L177.408,99 L177.408,181.368 C177.408,188.366904 183.081096,194.04 190.08,194.04"/>
        <path fill="#000" d="M190.08,194.04 L190.08,178.2 L177.408,178.2 L177.408,181.368 C177.408,188.366904 183.081096,194.04 190.08,194.04"/>
        <polygon fill="#000" points="218.592 151.272 231.264 151.272 231.264 46.728 218.592 46.728"/>
        <path fill="#FFF" d="M232.848,93.456 L217.008,93.456 C216.13284,93.456 215.424,94.165632 215.424,95.04 L215.424,109.296 C215.424,110.170368 216.13284,110.88 217.008,110.88 L232.848,110.88 C233.72316,110.88 234.432,110.170368 234.432,109.296 L234.432,95.04 C234.432,94.165632 233.72316,93.456 232.848,93.456 Z M218.592,107.712 L231.264,107.712 L231.264,96.624 L218.592,96.624 L218.592,107.712 Z"/>
        <polygon fill="#000" points="266.112 151.272 278.784 151.272 278.784 46.728 266.112 46.728"/>
        <path fill="#FFF" d="M280.368,93.456 L264.528,93.456 C263.653632,93.456 262.944,94.165632 262.944,95.04 L262.944,109.296 C262.944,110.170368 263.653632,110.88 264.528,110.88 L280.368,110.88 C281.242368,110.88 281.952,110.170368 281.952,109.296 L281.952,95.04 C281.952,94.165632 281.242368,93.456 280.368,93.456 Z M266.112,107.712 L278.784,107.712 L278.784,96.624 L266.112,96.624 L266.112,107.712 Z"/>
        <path fill="#0065FF" d="M288.288,204.336 L209.088,204.336 C202.964256,204.336 198,199.371744 198,193.248 L198,152.064 C198,145.940256 202.964256,140.976 209.088,140.976 L288.288,140.976 C294.411744,140.976 299.376,145.940256 299.376,152.064 L299.376,193.248 C299.376,199.371744 294.411744,204.336 288.288,204.336"/>
        <path fill="#000" d="M290.664,152.46 L206.712,152.46 C205.399656,152.46 204.336,151.396344 204.336,150.084 C204.336,148.771656 205.399656,147.708 206.712,147.708 L290.664,147.708 C291.976344,147.708 293.04,148.771656 293.04,150.084 C293.04,151.396344 291.976344,152.46 290.664,152.46"/>
        <path fill="#000" d="M209.088,159.984 L209.088,159.984 C207.775656,159.984 206.712,158.920344 206.712,157.608 L207.347184,151.888968 C207.43668,151.086672 208.114632,150.48 208.92168,150.48 L209.25432,150.48 C210.061368,150.48 210.73932,151.086672 210.828816,151.888968 L211.464,157.608 C211.464,158.920344 210.400344,159.984 209.088,159.984"/>
        <circle cx="366.696" cy="39.6" r="39.6" fill="#FFE0FA"/>
        <circle cx="153.648" cy="220.968" r="23.76" fill="#E4DDFE"/>
        <circle cx="153.648" cy="220.968" r="16.632" fill="#E4DDFE"/>
        <rect width="76.824" height="23.76" x="69.696" y="172.656" fill="#07F" fill-opacity=".5" rx="11.88"/>
        <path fill="#FF57A8" fill-opacity=".5" d="M93.456,45.144 C106.578286,45.144 117.216,55.7817143 117.216,68.904 C117.216,82.0262857 106.578286,92.664 93.456,92.664 C80.3337143,92.664 69.696,82.0262857 69.696,68.904 C69.696,55.7817143 80.3337143,45.144 93.456,45.144 Z M93.456,52.272 C84.2704,52.272 76.824,59.7184 76.824,68.904 C76.824,78.0896 84.2704,85.536 93.456,85.536 C102.6416,85.536 110.088,78.0896 110.088,68.904 C110.088,59.7184 102.6416,52.272 93.456,52.272 Z"/>
        <g transform="translate(231.264 162.36)">
          <rect width="34.802" height="34.802"/>
          <g transform="translate(.557 1.74)">
            <path stroke="#000" stroke-linecap="round" stroke-linejoin="round" stroke-width="1.114" d="M30.1308066,28.8174071 C21.6820531,32.269612 13.7384085,27.7273927 5.96201413,20.5364411"/>
            <path fill="#000" fill-rule="nonzero" d="M29.5429458,26.896381 C28.9059174,27.9567068 29.2490153,29.3327257 30.3093412,29.9698884 C31.369667,30.6070512 32.7456859,30.2639532 33.3828487,29.2036274 C34.0200114,28.1431672 33.6769134,26.7671483 32.6165876,26.1299856 C31.5562618,25.4929572 30.1801085,25.8360551 29.5429458,26.896381 Z"/>
            <path stroke="#000" stroke-linecap="round" stroke-linejoin="round" stroke-width="1.114" d="M18.8162314,2.95542482 C26.0160493,8.4205158 26.210973,17.5708066 24.0849478,27.9421983"/>
            <path fill="#000" fill-rule="nonzero" d="M17.4056877,4.43313723 C18.6299053,4.43313723 19.6222563,3.44074588 19.6222563,2.21656862 C19.6222563,0.992391354 18.6299053,0 17.4056877,0 C16.1816045,0 15.1891191,0.992391354 15.1891191,2.21656862 C15.1891191,3.44074588 16.1816045,4.43313723 17.4056877,4.43313723 Z"/>
            <path stroke="#000" stroke-linecap="round" stroke-linejoin="round" stroke-width="1.114" d="M2.22786173,25.7977689 C3.14620626,16.7173605 10.8860071,11.8358585 20.8861035,8.34570325"/>
            <path fill="#000" fill-rule="nonzero" d="M4.19998985,26.1807651 C3.56286743,25.120305 2.18679476,24.777207 1.12644207,25.4143697 C0.0660893806,26.0515325 -0.27699917,27.4275514 0.360127283,28.4878772 C0.997249706,29.5483374 2.37332237,29.8914353 3.43366163,29.2542726 C4.49401432,28.6171099 4.83711227,27.241091 4.19998985,26.1807651 Z"/>
            <polygon fill="url(#banner-mobil-c)" points="18.579 16.317 18.239 21.983 13.842 19.445"/>
          </g>
        </g>
      </g>
    </g>
  </g>
</svg>
