<svg xmlns="http://www.w3.org/2000/svg" width="476" height="309" viewBox="0 0 476 309">
  <defs>
    <linearGradient id="banner-event-logo-a" x1="97.605%" x2="26.763%" y1="-25.058%" y2="106.362%">
      <stop offset="0%" stop-color="#FFF"/>
      <stop offset="100%"/>
    </linearGradient>
  </defs>
  <g fill="none" fill-rule="evenodd">
    <path fill="#DCEDD9" d="M408.5,74 C445.779221,74 476,104.220779 476,141.5 C476,178.779221 445.779221,209 408.5,209 L200,209 C208.284271,209 215,202.284271 215,194 C215,185.715729 208.284271,179 200,179 L200,179 L11.367672,179.001575 C4.18744733,168.275527 1.6994153e-15,155.376779 0,141.5 C-9.20549855e-16,133.98314 1.22869739,126.753258 3.4962069,120.000238 L247,120 C255.284271,120 262,113.284271 262,105 C262,96.7157288 255.284271,90 247,90 L247,90 L23.8642509,89.9989281 C35.6310019,80.0192857 50.8625612,74 67.5,74 L408.5,74 Z M422,127 L188,127 C179.715729,127 173,133.715729 173,142 C173,150.284271 179.715729,157 188,157 L188,157 L422,157 C430.284271,157 437,150.284271 437,142 C437,133.715729 430.284271,127 422,127 L422,127 Z"/>
    <rect width="114" height="30" x="46" y="35" fill="#CBE6FF" rx="15"/>
    <rect width="180" height="30" x="215" y="27" fill="#FFE9C0" rx="15"/>
    <rect width="97" height="30" x="347" y="239" fill="#FFE0FA" rx="15"/>
    <g transform="translate(148 27)">
      <path fill="#09F" d="M69,32 L111,32 L111,20 C111,13.373 105.627,8 99,8 L81,8 C74.373,8 69,13.373 69,20 L69,32 Z M117,38 L63,38 L63,18 C63,9.163 70.163,2 79,2 L101,2 C109.837,2 117,9.163 117,18 L117,38 L117,38 Z"/>
      <path fill="#09F" d="M140,252 L40,252 C26.745,252 16,241.255 16,228 L16,50 C16,40.059 24.059,32 34,32 L146,32 C155.941,32 164,40.059 164,50 L164,228 C164,241.255 153.255,252 140,252"/>
      <path fill="#000" d="M140,252 L40,252 C26.745,252 16,241.255 16,228 L16,208 L164,208 L164,228 C164,241.255 153.255,252 140,252"/>
      <path fill="#0065FF" d="M126 106L54 106C42.954 106 34 97.046 34 86L34 32 146 32 146 86C146 97.046 137.046 106 126 106M101.917 12L78.083 12C75.828 12 74 10.172 74 7.917L74 4.083C74 1.828 75.828 0 78.083 0L101.917 0C104.172 0 106 1.828 106 4.083L106 7.917C106 10.172 104.172 12 101.917 12M164 218L164 98 180 98 180 202C180 210.837 172.837 218 164 218"/>
      <path fill="#000" d="M164,218 L164,198 L180,198 L180,202 C180,210.837 172.837,218 164,218"/>
      <path fill="#0065FF" d="M16,218 L16,98 L0,98 L0,202 C0,210.837 7.163,218 16,218"/>
      <path fill="#000" d="M16,218 L16,198 L0,198 L0,202 C0,210.837 7.163,218 16,218"/>
      <polygon fill="#000" points="52 164 68 164 68 32 52 32"/>
      <path fill="#FFF" d="M70,91 L50,91 C48.895,91 48,91.896 48,93 L48,111 C48,112.104 48.895,113 50,113 L70,113 C71.105,113 72,112.104 72,111 L72,93 C72,91.896 71.105,91 70,91 Z M52,109 L68,109 L68,95 L52,95 L52,109 Z"/>
      <polygon fill="#000" points="112 164 128 164 128 32 112 32"/>
      <path fill="#FFF" d="M130,91 L110,91 C108.896,91 108,91.896 108,93 L108,111 C108,112.104 108.896,113 110,113 L130,113 C131.104,113 132,112.104 132,111 L132,93 C132,91.896 131.104,91 130,91 Z M112,109 L128,109 L128,95 L112,95 L112,109 Z"/>
      <path fill="#0065FF" d="M140,231 L40,231 C32.268,231 26,224.732 26,217 L26,165 C26,157.268 32.268,151 40,151 L140,151 C147.732,151 154,157.268 154,165 L154,217 C154,224.732 147.732,231 140,231"/>
      <path fill="#000" d="M143,165.5 L37,165.5 C35.343,165.5 34,164.157 34,162.5 C34,160.843 35.343,159.5 37,159.5 L143,159.5 C144.657,159.5 146,160.843 146,162.5 C146,164.157 144.657,165.5 143,165.5"/>
      <path fill="#000" d="M40,175 L40,175 C38.343,175 37,173.657 37,172 L37.802,164.779 C37.915,163.766 38.771,163 39.79,163 L40.21,163 C41.229,163 42.085,163.766 42.198,164.779 L43,172 C43,173.657 41.657,175 40,175"/>
    </g>
    <path fill="#FFE0FA" d="M387,0 C414.614237,0 437,22.3857625 437,50 C437,77.6142375 414.614237,100 387,100 C359.385763,100 337,77.6142375 337,50 C337,22.3857625 359.385763,0 387,0 Z M387,15 C367.670034,15 352,30.6700338 352,50 C352,69.3299662 367.670034,85 387,85 C406.329966,85 422,69.3299662 422,50 C422,30.6700338 406.329966,15 387,15 Z"/>
    <path fill="#E4DDFE" d="M118,249 C134.568542,249 148,262.431458 148,279 C148,295.568542 134.568542,309 118,309 C101.431458,309 88,295.568542 88,279 C88,262.431458 101.431458,249 118,249 Z M118,258 C106.40202,258 97,267.40202 97,279 C97,290.59798 106.40202,300 118,300 C129.59798,300 139,290.59798 139,279 C139,267.40202 129.59798,258 118,258 Z"/>
    <rect width="97" height="30" x="12" y="218" fill="#07F" fill-opacity=".5" rx="15"/>
    <path fill="#FF57A8" fill-opacity=".5" d="M42,57 C58.5685425,57 72,70.4314575 72,87 C72,103.568542 58.5685425,117 42,117 C25.4314575,117 12,103.568542 12,87 C12,70.4314575 25.4314575,57 42,57 Z M42,66 C30.4020203,66 21,75.4020203 21,87 C21,98.5979797 30.4020203,108 42,108 C53.5979797,108 63,98.5979797 63,87 C63,75.4020203 53.5979797,66 42,66 Z"/>
    <g transform="translate(216 205)">
      <rect width="43.943" height="43.943"/>
      <g transform="translate(.703 2.197)">
        <path stroke="#000" stroke-linecap="round" stroke-linejoin="round" stroke-width="1.406" d="M38.0439478,36.385615 C27.3763297,40.7444595 17.3464754,35.0093342 7.52779562,25.9298498"/>
        <path fill="#000" fill-rule="nonzero" d="M37.3016992,33.960077 C36.4973704,35.2988722 36.9305749,37.0362698 38.2693702,37.8407682 C39.6081654,38.6452666 41.345563,38.2120621 42.1500614,36.8732669 C42.9545598,35.534302 42.5213553,33.7969044 41.1825601,32.992406 C39.8437649,32.1880772 38.1061976,32.6212817 37.3016992,33.960077 Z"/>
        <path stroke="#000" stroke-linecap="round" stroke-linejoin="round" stroke-width="1.406" d="M23.7578679,3.731597 C32.8485471,10.6319644 33.0946628,22.1853619 30.4102877,35.2805534"/>
        <path fill="#000" fill-rule="nonzero" d="M21.9768784,5.5973955 C23.5226077,5.5973955 24.7755762,4.34437611 24.7755762,2.79869775 C24.7755762,1.25301939 23.5226077,0 21.9768784,0 C20.4313188,0 19.1781807,1.25301939 19.1781807,2.79869775 C19.1781807,4.34437611 20.4313188,5.5973955 21.9768784,5.5973955 Z"/>
        <path stroke="#000" stroke-linecap="round" stroke-linejoin="round" stroke-width="1.406" d="M2.81295674,32.5729406 C3.97248266,21.1077784 13.7449585,14.9442657 26.3713428,10.5375041"/>
        <path fill="#000" fill-rule="nonzero" d="M5.30301749,33.0565216 C4.49856999,31.7175568 2.7611045,31.2843523 1.42227534,32.0888507 C0.0834461876,32.8933491 -0.349746427,34.6307467 0.454706165,35.9695419 C1.25915367,37.3085068 2.99661916,37.7417113 4.33543135,36.9372129 C5.67426051,36.1327145 6.10746499,34.3953169 5.30301749,33.0565216 Z"/>
        <polygon fill="url(#banner-event-logo-a)" points="23.458 20.602 23.029 27.757 17.478 24.552"/>
      </g>
    </g>
  </g>
</svg>
