<svg width="42" height="42" viewBox="0 0 42 42" fill="none" xmlns="http://www.w3.org/2000/svg">
<path d="M36.3351 34.9669C26.5195 39.0742 17.2906 33.6701 8.25608 25.1145" stroke="white" stroke-width="0.624288" stroke-linecap="round" stroke-linejoin="round"/>
<path d="M35.6522 32.6813C34.912 33.9429 35.3106 35.5801 36.5425 36.3381C37.7744 37.0961 39.3731 36.6879 40.1134 35.4264C40.8536 34.1648 40.455 32.5276 39.223 31.7696C37.9911 31.0115 36.3924 31.4197 35.6522 32.6813Z" fill="white"/>
<path d="M23.19 4.19708C31.5546 10.6993 31.781 21.5861 29.311 33.9256" stroke="white" stroke-width="0.624288" stroke-linecap="round" stroke-linejoin="round"/>
<path d="M21.5513 5.9552C22.9735 5.9552 24.1265 4.77449 24.1265 3.318C24.1265 1.8615 22.9735 0.680786 21.5513 0.680786C20.1291 0.680786 18.9761 1.8615 18.9761 3.318C18.9761 4.77449 20.1291 5.9552 21.5513 5.9552Z" fill="white"/>
<path d="M3.91776 31.3743C4.98468 20.5706 13.9767 14.7627 25.5947 10.6103" stroke="white" stroke-width="0.624288" stroke-linecap="round" stroke-linejoin="round"/>
<path d="M6.20897 31.8299C5.46877 30.5683 3.87006 30.1601 2.63815 30.9181C1.40625 31.6762 1.00765 33.3134 1.74785 34.5749C2.48805 35.8365 4.08676 36.2447 5.31866 35.4867C6.55057 34.7286 6.94917 33.0914 6.20897 31.8299Z" fill="white"/>
<path fill-rule="evenodd" clip-rule="evenodd" d="M22.9145 20.0946L22.5194 26.8359L17.4112 23.8157L22.9145 20.0946Z" fill="white"/>
</svg>
